<svg width="57" height="48" viewBox="0 0 57 48" fill="none" xmlns="http://www.w3.org/2000/svg">
<g clip-path="url(#clip0_1270_85212)">
<path d="M44.7044 47.952H13.2958C7.90675 47.952 3.52246 43.8168 3.52246 38.7336V9.21889C3.52246 4.13575 7.9066 0.000488281 13.2958 0.000488281H44.7045C50.0934 0.000488281 54.4779 4.13575 54.4779 9.21889V38.7336C54.4779 43.8168 50.0934 47.952 44.7044 47.952ZM13.2958 1.1394C8.53471 1.1394 4.66123 4.76371 4.66123 9.21889V38.7336C4.66123 43.1887 8.53471 46.8131 13.2958 46.8131H44.7045C49.4656 46.8131 53.3391 43.1887 53.3391 38.7336V9.21889C53.3391 4.76386 49.4656 1.1394 44.7045 1.1394H13.2958Z" fill="#0A090A"/>
<path d="M21.6806 8.49463L31.139 8.51701C33.1157 8.50214 34.5918 8.81769 35.5667 9.46367C36.7574 10.2555 37.3525 11.6179 37.3525 13.5509C37.3525 16.7335 35.8764 18.5365 32.9245 18.9596V19.0042C34.2262 19.3285 34.8842 20.4063 34.8989 22.2376C34.8989 23.1756 34.8639 24.3771 34.7938 25.8422C34.7938 26.8248 35.0016 27.6749 35.418 28.3925H30.2351C29.9931 28.1301 29.8722 27.5957 29.8722 26.7889C29.9714 25.4402 30.0209 24.3337 30.0209 23.4699C30.0209 21.7251 29.1826 20.8528 27.5058 20.8528H24.1521L22.6896 27.9099H17.6411L21.6806 8.49463ZM29.6762 12.541H25.9599L24.9907 17.2258H29.0121C31.26 17.2258 32.391 16.3388 32.4057 14.5642C32.4058 13.2155 31.4958 12.541 29.6762 12.541Z" fill="#0A090A"/>
<path d="M36.1039 28.3701L39.846 21.8848L40.8549 28.4149H47.239L41.4792 32.5503L42.4014 39.0356L37.4144 35.1231L30.7108 39.1917L33.8465 32.2868L30.1919 28.3518L36.1039 28.3701ZM53.1611 45.4751C53.3683 45.4751 53.5705 45.5295 53.7679 45.6383C53.9654 45.7468 54.1192 45.9026 54.229 46.1051C54.3393 46.3075 54.3943 46.5185 54.3943 46.7383C54.3943 46.9559 54.3402 47.165 54.2315 47.3656C54.1272 47.562 53.9688 47.7243 53.7751 47.8333C53.5795 47.9445 53.3748 47.9997 53.1608 47.9997C52.9474 47.9997 52.7426 47.9442 52.5466 47.8333C52.3527 47.7242 52.1941 47.562 52.0895 47.3656C51.9806 47.165 51.9259 46.9556 51.9259 46.7383C51.9259 46.5185 51.9813 46.3075 52.092 46.1051C52.2028 45.9026 52.3568 45.747 52.5541 45.6383C52.7518 45.5294 52.9541 45.4751 53.1611 45.4751ZM53.1611 45.6841C52.9878 45.6841 52.8189 45.7296 52.6549 45.8206C52.4916 45.9107 52.3578 46.0459 52.2695 46.2102C52.1769 46.3793 52.1305 46.5552 52.1305 46.738C52.1305 46.9199 52.1761 47.0942 52.2671 47.2609C52.355 47.4243 52.4874 47.5595 52.6489 47.6508C52.8125 47.7438 52.983 47.7905 53.1609 47.7905C53.3386 47.7905 53.5094 47.7438 53.6731 47.6508C53.8345 47.5597 53.9666 47.4244 54.054 47.2609C54.1445 47.0942 54.1897 46.92 54.1897 46.738C54.1897 46.555 54.1435 46.3793 54.0516 46.2102C53.9637 46.0457 53.8299 45.9103 53.6663 45.8206C53.502 45.7296 53.3335 45.6841 53.1611 45.6841ZM52.6198 47.4359V46.0774H53.0761C53.2321 46.0774 53.3449 46.0899 53.4146 46.115C53.4846 46.1401 53.54 46.1839 53.5813 46.2464C53.6229 46.3089 53.6437 46.3751 53.6437 46.4454C53.6437 46.5447 53.6091 46.6312 53.5397 46.7046C53.4706 46.7782 53.3787 46.8194 53.2641 46.8284C53.311 46.8487 53.3487 46.8725 53.3768 46.9005C53.4305 46.9539 53.4957 47.0438 53.5732 47.1696L53.7351 47.4358H53.4735L53.3559 47.2216C53.2632 47.0534 53.1884 46.9478 53.1318 46.9054C53.0924 46.874 53.0352 46.8584 52.9598 46.8584H52.834V47.4358H52.6198V47.4359ZM52.834 46.6711H53.0941C53.2186 46.6711 53.3033 46.6522 53.3485 46.6141C53.3936 46.5765 53.4163 46.526 53.4163 46.4636C53.4167 46.4251 53.4053 46.3874 53.3835 46.3557C53.3611 46.3235 53.3295 46.2987 53.2928 46.2847C53.254 46.2692 53.1826 46.2611 53.0779 46.2611H52.834V46.6711Z" fill="#0A090A"/>
<path d="M40.4667 32.0862L44.2921 29.3614H40.0601L39.327 24.6357L36.6413 29.317H32.3657L34.9644 32.1086L32.8159 36.7936L37.4796 33.9797L41.1564 36.8604L40.4667 32.0862Z" fill="#0A090A"/>
</g>
<defs>
<clipPath id="clip0_1270_85212">
<rect width="50.9554" height="48" fill="white" transform="translate(3.52246)"/>
</clipPath>
</defs>
</svg>
