<svg width="113" height="48" viewBox="0 0 113 48" fill="none" xmlns="http://www.w3.org/2000/svg">
<g clip-path="url(#clip0_1270_84947)">
<path d="M52.1162 11.7679C53.3915 12.4056 55.0727 11.6519 55.8263 10.0867C56.5799 8.52151 56.1741 6.78238 54.8408 6.1447C53.5655 5.50702 51.8843 6.26064 51.1307 7.82586C50.435 9.33311 50.8408 11.1302 52.1162 11.7679Z" fill="#0A090A"/>
<path d="M107.304 17.5074C107.189 17.3335 106.841 17.5074 106.319 17.9711C105.275 18.8987 104.232 19.6523 103.073 20.174C101.913 20.6958 100.87 21.0436 99.8842 21.1595C98.8987 21.2755 98.0291 21.2175 97.2175 20.9277C96.4059 20.6378 95.8842 20.174 95.5363 19.5364C97.3334 19.3045 98.9566 18.7827 100.406 17.9711C101.855 17.1016 103.015 16.1161 103.884 15.0146C104.754 13.9132 105.333 12.7538 105.565 11.5943C105.797 10.4349 105.739 9.39143 105.275 8.52187C104.87 7.82621 104.29 7.30448 103.536 6.95665C102.783 6.60882 101.913 6.49288 100.986 6.49288C100.058 6.55085 99.0726 6.72477 98.0291 7.07259C96.9856 7.42042 96.0001 8.00013 95.0726 8.75375C94.145 9.50737 93.2755 10.3769 92.5218 11.4204C91.7682 12.4639 91.1305 13.6813 90.7247 15.0726C90.3189 16.5798 90.145 17.9132 90.261 19.1306C90.3189 19.4784 90.3189 19.8262 90.4349 20.174L90.3769 20.232C89.7392 20.7538 89.1595 21.1595 88.5218 21.3914C87.8842 21.6233 87.4204 21.6813 87.1305 21.5653C86.8986 21.5074 86.6668 21.4494 86.4928 21.2755C86.3189 21.1016 86.261 20.8117 86.203 20.4059C86.203 20.0001 86.261 19.4784 86.4349 18.7827C86.6088 18.0871 86.9566 17.2755 87.4784 16.29C88.0581 15.1306 88.5218 14.1451 88.8697 13.2175C89.2175 12.29 89.4494 11.5943 89.5653 10.8987C89.6233 10.261 89.5653 9.68129 89.3914 9.27549C89.1595 8.81172 88.7537 8.4639 88.116 8.17404C87.5943 7.94216 86.9566 7.94216 86.261 8.11607C85.5073 8.28998 84.6958 8.75375 83.8262 9.39143C82.9566 10.0871 81.9711 11.0146 80.9276 12.232C79.8842 13.4494 78.8407 14.9566 77.7392 16.8117C78.3189 15.0146 78.8407 13.2175 79.4784 11.4204C80.0581 9.56534 80.6378 7.88419 81.1015 6.37694C81.6233 4.86969 82.0291 3.59433 82.3769 2.55085C82.7247 1.50737 82.8986 0.869692 82.9566 0.695779C83.0726 0.405924 82.8986 0.232011 82.4929 0.116069C82.0871 0.000127023 81.5653 0.000127023 81.0436 0.058098C80.4639 0.116069 79.9421 0.232011 79.4204 0.463895C78.8986 0.695779 78.5508 0.985634 78.4349 1.33346C78.3769 1.56534 78.145 2.261 77.7392 3.36245C77.3334 4.4639 76.8697 5.8552 76.3479 7.47839C75.8262 9.10158 75.1885 10.8407 74.6088 12.7538C73.9711 14.6668 73.3914 16.5219 72.8117 18.319C72.3479 19.8262 71.9421 21.2175 71.5943 22.4929C71.5363 22.5509 71.4204 22.6088 71.3624 22.6668C70.087 23.8262 68.6957 24.6378 67.3044 25.1596C65.9131 25.6813 64.6957 25.9132 63.5363 25.7972C62.4349 25.6813 61.5653 25.2755 60.9276 24.5798C60.2899 23.8842 60.0581 22.8407 60.29 21.5653C60.4639 20.5798 60.8117 19.6523 61.3334 18.7827C61.8552 17.9132 62.4349 17.2175 63.0726 16.6958C63.7102 16.1161 64.29 15.7682 64.9276 15.5364C65.5653 15.3045 66.0291 15.3624 66.3769 15.5943C66.5508 15.7682 66.6668 16.0001 66.5508 16.348C66.4928 16.6378 66.3769 16.9856 66.145 17.3914C65.9131 17.7393 65.6813 18.1451 65.4494 18.5509C65.2175 18.9566 64.9856 19.3045 64.7537 19.5943C64.5218 20.0001 64.4639 20.29 64.6957 20.6378C64.9276 20.9277 65.2755 21.1595 65.7392 21.2755C66.203 21.3914 66.7827 21.3914 67.4204 21.2755C68.0581 21.1595 68.6378 20.8117 69.2175 20.348C69.7392 19.8842 70.145 19.3045 70.4928 18.6668C70.7827 18.0291 71.0146 17.3914 71.1305 16.6958C71.2465 16.0001 71.1885 15.3045 71.0146 14.6668C70.8407 14.0291 70.5508 13.3914 70.145 12.8697C69.4494 11.9422 68.4059 11.4204 67.0726 11.3045C65.7392 11.1306 64.3479 11.3624 62.8407 11.9422C61.3914 12.5219 60.0001 13.5074 58.7247 14.8407C57.4494 16.174 56.4639 17.8552 55.8262 19.9422C55.4204 21.4494 55.2465 22.7827 55.3624 23.9422C55.4204 24.29 55.4204 24.5798 55.4784 24.8697C55.4204 24.9277 55.3624 24.9856 55.2465 25.0436C53.8552 26.1451 52.8117 26.5509 52.116 26.1451C51.4204 25.7972 51.2465 24.8117 51.5363 23.3045C51.8262 22.0291 52.232 20.6378 52.6957 19.1885C53.1595 17.7393 53.7972 16.29 54.4928 14.8407C54.6668 14.5509 54.5508 14.319 54.203 14.261C53.8552 14.1451 53.3914 14.1451 52.8117 14.261C52.2899 14.319 51.7102 14.4929 51.1305 14.6668C50.5508 14.8407 50.145 15.1306 49.9131 15.4204C49.6813 15.7103 49.4494 16.1161 49.1595 16.7538C48.8697 17.3914 48.5798 18.0291 48.29 18.8407C48.0001 19.5943 47.7682 20.4059 47.4784 21.2175C47.2465 22.0291 47.0146 22.7827 46.8407 23.4204C46.6088 24.348 46.3769 25.2755 46.261 26.203V26.261C44.8697 27.3624 43.7682 27.7682 43.0726 27.4204C42.3769 27.0726 42.203 26.0871 42.5508 24.5798C42.6668 23.9422 42.8407 23.1885 43.1305 22.3769C43.3624 21.5653 43.6523 20.6958 44.0001 19.8262L45.0436 17.2175C45.3914 16.348 45.7392 15.5943 46.087 14.8407C46.203 14.5509 46.087 14.3769 45.7392 14.261C45.3914 14.1451 44.9276 14.1451 44.4059 14.203C43.8841 14.261 43.3044 14.4349 42.7247 14.6088C42.145 14.8407 41.7392 15.0726 41.5073 15.4204C41.2755 15.7103 41.0436 16.174 40.6957 16.9277C40.3479 17.6813 40.0001 18.4929 39.6523 19.3624C39.3044 20.232 38.9566 21.1595 38.6668 22.1451C38.3189 23.0726 38.087 23.8842 37.9131 24.5219L37.7392 25.1596C37.3334 25.9711 36.8117 26.5509 36.232 27.0146C35.6523 27.4784 35.1305 27.7103 34.6668 27.8262C34.203 27.8842 33.7972 27.7682 33.5073 27.4204C33.2175 27.0726 33.1595 26.4929 33.3914 25.6813C33.5653 25.0436 33.7392 24.29 34.0291 23.4784C34.261 22.6668 34.5508 21.7972 34.8407 20.9277C35.1305 20.0581 35.4784 19.1885 35.8262 18.319C36.174 17.4494 36.5218 16.6958 36.8697 15.9422C37.0436 15.6523 36.9276 15.4784 36.5798 15.3624C36.174 15.2465 35.7102 15.2465 35.1885 15.3045C34.6668 15.3624 34.087 15.5364 33.5073 15.7103C32.9276 15.9422 32.5218 16.174 32.2899 16.5219C32.116 16.8117 31.8842 17.2755 31.5363 18.0291C31.1885 18.7827 30.8407 19.5943 30.4928 20.4639C30.145 21.3335 29.7972 22.261 29.5073 23.2465C29.1595 24.174 28.9276 24.9856 28.8117 25.6233C28.5798 26.5509 28.3479 27.4784 28.232 28.4059C28.116 29.3335 28.116 30.1451 28.232 30.8987C28.3479 31.6523 28.6957 32.174 29.1595 32.5798C29.6233 32.9856 30.3769 33.1016 31.3624 32.9856C32.7537 32.8117 33.9711 32.232 34.8986 31.3624C35.8842 30.4929 36.6378 29.5074 37.2175 28.4639C37.2175 29.5653 37.4494 30.3769 37.9131 31.0726C38.3769 31.7103 39.2465 31.9422 40.4639 31.7682C41.2755 31.6523 42.0291 31.3624 42.7827 30.9567C43.4784 30.5509 44.174 30.0291 44.6957 29.5074C45.2755 28.9856 45.7392 28.4639 46.087 27.8842C46.087 28.0581 46.145 28.29 46.145 28.4639C46.3189 29.2175 46.6088 29.7393 47.1305 30.1451C47.5943 30.5509 48.3479 30.6668 49.3334 30.5509C50.5508 30.3769 51.6523 29.9132 52.6378 29.1016C53.6233 28.29 54.3769 27.4784 54.9566 26.7248C55.1885 26.3769 55.4204 26.0871 55.5363 25.7972C55.7102 26.203 55.8842 26.5509 56.116 26.8987C56.6957 27.7682 57.4494 28.4639 58.4928 28.9277C59.4784 29.3914 60.6957 29.6813 62.0871 29.6233C63.3624 29.6233 64.5798 29.3914 65.6813 28.9277C66.7827 28.4639 67.7682 27.8842 68.6378 27.1885C69.4494 26.5509 70.145 25.8552 70.7247 25.1596C70.5508 25.8552 70.4349 26.4929 70.3769 26.9567C70.3189 27.2465 70.5508 27.4204 71.0146 27.5364C71.4784 27.6523 71.9421 27.6523 72.5218 27.5943C73.1015 27.5364 73.6233 27.4204 74.145 27.1885C74.6668 26.9567 74.9566 26.7248 75.0146 26.319C75.0726 26.0291 75.1305 25.6813 75.1885 25.2755C75.2465 24.8697 75.3624 24.4059 75.5363 23.8262C76.0001 22.9566 76.5798 21.9711 77.3334 20.8117C78.0871 19.6523 78.8407 18.5509 79.5943 17.5074C80.3479 16.4639 81.1015 15.5943 81.7392 14.8987C82.4349 14.203 82.8986 13.7972 83.1885 13.7393C83.5363 13.7393 83.7102 13.8552 83.7102 14.203C83.7102 14.4929 83.6523 14.9566 83.4204 15.4784C83.2465 16.0001 82.9566 16.6958 82.6088 17.3914C82.261 18.1451 81.9131 18.8987 81.5653 19.7103C81.2175 20.5798 80.9276 21.3914 80.8697 22.1451C80.7537 22.8987 80.8117 23.5943 80.9856 24.174C81.1595 24.7538 81.5073 25.2175 82.0291 25.5074C82.5508 25.7972 83.2465 25.9132 84.116 25.7972C85.5653 25.6233 86.7827 25.1016 87.8262 24.29C88.8697 23.4784 89.6813 22.6668 90.261 21.8552C90.4349 21.5653 90.6088 21.3335 90.7247 21.1016C90.8407 21.4494 91.0146 21.7972 91.2465 22.0871C91.8262 22.9566 92.6378 23.6523 93.6233 24.1161C94.6668 24.5798 95.8262 24.8117 97.1595 24.8117C98.4929 24.8117 99.7102 24.5798 100.812 24.1161C101.913 23.6523 102.899 23.0726 103.768 22.3769C104.638 21.6813 105.333 20.9856 105.913 20.29C106.493 19.5364 106.899 18.9566 107.131 18.4349C107.362 18.0291 107.42 17.6813 107.304 17.5074ZM96.5798 13.6813C97.1015 12.8697 97.7392 12.232 98.3769 11.6523C99.0146 11.1306 99.6523 10.7248 100.232 10.4929C100.812 10.261 101.275 10.261 101.565 10.4929C101.913 10.7827 101.971 11.1885 101.797 11.7103C101.623 12.29 101.217 12.8697 100.58 13.4494C100 14.0291 99.2465 14.6088 98.3189 15.1306C97.3914 15.6523 96.4059 16.0001 95.3624 16.174C95.6523 15.3624 96.0581 14.4929 96.5798 13.6813Z" fill="#0A090A"/>
<path d="M31.6525 35.536C31.3047 35.594 30.8989 35.652 30.4931 35.7099C30.0294 35.7679 29.5656 35.7679 29.1018 35.7099C28.6381 35.652 28.1163 35.594 27.6525 35.4201C27.1888 35.2462 26.783 35.0143 26.3772 34.7244C25.5656 34.1447 24.8699 33.2752 24.1163 32.2317C23.9424 31.9418 23.7685 31.7099 23.5366 31.4201C24.0583 30.7244 24.5221 29.9708 24.9859 29.1592C26.2033 27.0723 27.1888 24.8114 27.9424 22.3766C28.696 19.9418 29.1598 17.507 29.3337 15.1882C29.5076 12.8694 29.3917 10.7824 28.9279 8.81138C28.5221 6.89834 27.7105 5.39109 26.4931 4.34762C25.9134 3.88385 25.2178 3.65196 24.2902 3.65196C23.3627 3.65196 22.5511 3.82588 21.7395 4.1737C21.7975 3.1882 21.6815 2.31863 21.3337 1.56501C21.0438 0.811384 20.4641 0.521529 19.5946 0.637471C17.6236 1.10124 15.8265 2.02878 14.2033 3.47805C12.5221 4.92733 11.0728 6.66646 9.79747 8.63747C8.69602 10.7244 7.59457 12.8114 6.72501 15.0723C5.85544 17.3331 5.27573 19.4201 4.9279 21.4491C4.46414 24.0578 4.46414 26.3766 4.9279 28.4636C5.39167 30.5505 6.08732 32.2896 7.1308 33.623C8.17428 35.0143 9.39167 35.9998 10.8409 36.6375C12.2902 37.2752 13.8554 37.4491 15.4786 37.1592C16.8699 36.9273 18.3192 36.2896 19.7685 35.3041C19.9424 35.4201 20.0583 35.594 20.2323 35.7679C20.8699 36.3476 21.5656 36.9273 22.3192 37.3911C23.0728 37.8549 23.9424 38.2607 24.8699 38.4925C25.7395 38.7244 26.667 38.7824 27.4786 38.7244C28.2902 38.6665 29.0438 38.3766 29.6236 38.1447C30.2033 37.8549 30.725 37.507 31.1308 37.2172C31.5366 36.8694 31.8265 36.5795 32.0583 36.2896C32.2902 35.9998 32.4641 35.7679 32.5801 35.652C32.696 35.4781 32.754 35.4201 32.754 35.4201C32.754 35.4201 32.6381 35.3621 32.4641 35.3621C32.2902 35.4201 32.0004 35.4781 31.6525 35.536ZM22.6091 16.8694C22.3772 18.6665 21.9134 20.5215 21.2757 22.2607C20.696 23.8259 20.0583 25.2172 19.3627 26.4346C19.2467 26.3766 19.0728 26.3186 18.9569 26.2607C18.4931 26.0867 17.9714 25.9708 17.5656 25.9128C16.6381 25.8549 15.9424 26.0288 15.3627 26.3186C14.783 26.5505 14.4352 26.8983 14.1453 27.1882C13.8554 27.4781 13.6815 27.7099 13.5656 27.9418C13.5076 28.0578 13.4496 28.1157 13.4496 28.1737C13.4496 28.2317 13.3917 28.2317 13.3917 28.2317H13.4496C13.5076 28.2317 13.5656 28.2896 13.6815 28.2896C13.9134 28.3476 14.2033 28.4056 14.4931 28.5215C14.8409 28.6375 15.1888 28.7534 15.5946 28.9273C15.9424 29.1012 16.2902 29.3331 16.4641 29.623C16.5801 29.7969 16.6381 29.9128 16.6381 30.0868C16.3482 30.3766 16.0583 30.6085 15.7685 30.7824C14.667 31.4781 13.7395 31.7099 12.9279 31.4781C12.1163 31.2462 11.4786 30.6085 11.0728 29.507C10.667 28.4636 10.4931 27.0723 10.667 25.3911C10.783 23.7679 11.1308 22.0867 11.6525 20.2317C12.1743 18.4346 12.8699 16.6375 13.6815 15.0143C14.4931 13.3331 15.4786 11.8259 16.6381 10.5505C17.7975 9.27515 19.0149 8.28965 20.4062 7.76791C21.5076 8.81138 22.2033 10.2027 22.5511 11.8259C22.8409 13.3331 22.8989 15.0723 22.6091 16.8694ZM49.6815 36.0578C50.6091 36.0578 51.2467 36.3476 51.7105 36.8694C52.1163 37.3911 52.3482 38.1447 52.3482 39.0143V39.9998H51.1308V38.8983C51.1308 38.3766 51.0149 37.9708 50.783 37.623C50.5511 37.3331 50.2033 37.1592 49.7395 37.1592C49.2757 37.1592 48.9279 37.3331 48.696 37.623C48.4641 37.9128 48.3482 38.3186 48.3482 38.8983V45.1012C48.3482 45.623 48.4641 46.0288 48.696 46.3766C48.9279 46.6665 49.2757 46.8404 49.7395 46.8404C50.2033 46.8404 50.5511 46.6665 50.783 46.3766C51.0149 46.0868 51.1308 45.681 51.1308 45.1012V42.7244H49.8554V41.565H52.2902V45.0433C52.2902 45.9128 52.0583 46.6665 51.6525 47.1882C51.2467 47.7099 50.5511 47.9998 49.6236 47.9998C48.754 47.9998 48.0583 47.7099 47.6525 47.1882C47.2467 46.6665 47.0149 45.9128 47.0149 45.0433V39.0143C47.0149 38.5505 47.0728 38.1447 47.1888 37.7969C47.3047 37.4491 47.4786 37.1012 47.6525 36.8694C47.8844 36.6375 48.1163 36.4056 48.4641 36.2896C48.812 36.1157 49.2178 36.0578 49.6815 36.0578ZM60.2323 45.565L59.7685 47.9418H58.5511L60.812 36.1737H62.725L64.9859 47.9418H63.6525L63.1888 45.565H60.2323ZM60.4062 44.4056H63.0149L61.6815 37.623L60.4062 44.4056ZM75.7105 47.8839H74.4352L72.5221 38.5505V47.8839H71.3627V36.1737H73.2178L75.1308 45.565L76.9859 36.1737H78.841V47.8839H77.5656V38.4346L75.7105 47.8839ZM89.7395 41.3331V42.5505H86.841V46.7244H90.3772V47.8839H85.5656V36.1737H90.3772V37.3331H86.841V41.3331H89.7395ZM99.4207 36.0578C100.29 36.0578 100.986 36.3476 101.392 36.8694C101.797 37.3911 102.029 38.0868 102.029 39.0143V39.3621H100.812V38.9563C100.812 38.4346 100.696 38.0288 100.464 37.7389C100.232 37.4491 99.8844 37.2752 99.4207 37.2752C98.9569 37.2752 98.6091 37.3911 98.3772 37.7389C98.1453 38.0288 98.0294 38.4346 98.0294 38.9563C98.0294 39.4201 98.1453 39.7679 98.3192 40.1157C98.4931 40.4636 98.783 40.7534 99.0728 41.0433C99.3627 41.3331 99.6525 41.565 100 41.8549C100.348 42.1447 100.638 42.4346 100.928 42.7244C101.218 43.0143 101.45 43.4201 101.682 43.7679C101.855 44.1737 101.971 44.6375 101.971 45.1592C101.971 46.0288 101.74 46.7824 101.334 47.3041C100.928 47.8259 100.232 48.1157 99.3047 48.1157C98.3772 48.1157 97.7395 47.8259 97.3337 47.3041C96.9279 46.7824 96.696 46.0868 96.696 45.1592V44.4636H97.9134V45.2172C97.9134 45.7389 98.0294 46.1447 98.2612 46.4346C98.4931 46.7244 98.841 46.8983 99.3047 46.8983C99.7685 46.8983 100.116 46.7244 100.348 46.4346C100.58 46.1447 100.696 45.7389 100.696 45.2172C100.696 44.7534 100.58 44.4056 100.406 44.0578C100.232 43.7099 99.9424 43.4201 99.6525 43.1882C99.3627 42.8983 99.0728 42.6665 98.725 42.3766C98.3772 42.0868 98.0873 41.7969 97.7975 41.507C97.5076 41.2172 97.2757 40.8114 97.0439 40.4636C96.8699 40.0578 96.754 39.594 96.754 39.0723C96.754 38.1447 96.9859 37.4491 97.3917 36.9273C97.9134 36.2896 98.5511 36.0578 99.4207 36.0578Z" fill="#0A090A"/>
</g>
<defs>
<clipPath id="clip0_1270_84947">
<rect width="102.74" height="48" fill="white" transform="translate(4.63037)"/>
</clipPath>
</defs>
</svg>
