<svg width="84" height="48" viewBox="0 0 84 48" fill="none" xmlns="http://www.w3.org/2000/svg">
<path fill-rule="evenodd" clip-rule="evenodd" d="M52.1678 0L35.8456 25.7287H18.0009L22.1508 19.3659H33.2169L37.2285 13.0027H12.4681L8.45688 19.3659H14.4047L6.24316 32.0919H39.5801L52.1678 12.0344L56.7331 19.3659H52.8599L48.7095 25.7287H60.7439L64.7559 32.0919H72.5016L52.1678 0Z" fill="white"/>
<path fill-rule="evenodd" clip-rule="evenodd" d="M46.7726 0.138184H20.4906L16.479 6.50141H42.761L46.7726 0.138184Z" fill="white"/>
<path fill-rule="evenodd" clip-rule="evenodd" d="M75.1303 37.625H74.5765V35.4121H74.0232V34.9971H75.6828V35.4121H75.1303V37.625ZM78.0348 35.9655L77.3432 37.625H77.2048L76.5132 35.9655L76.2361 37.625H75.6828L76.2361 34.8584H76.6515L77.3432 36.6567L77.8965 34.8584H78.3119L78.7261 37.625H78.1736L78.0348 35.9655ZM7.62604 37.21V45.5103H15.2338V42.6054H11.2226V40.3916H17.5855V44.957C17.5855 47.4465 16.8938 48.0003 14.9576 48.0003H7.76437C5.82774 48.0003 5.27441 47.4469 5.27441 44.957V38.0404C5.27441 35.5509 5.82774 34.8588 7.76437 34.8588H14.9576C16.8938 34.8588 17.5855 35.5505 17.5855 37.9021V38.7321H15.2338V37.21H7.62604ZM22.5654 42.7437L24.917 37.4867L27.1303 42.7437H22.5654ZM17.8625 47.9998H20.3525L21.5975 45.0949H28.099L29.344 47.9998H32.1106L26.1628 34.8584H23.8112L17.8625 47.9998ZM33.4931 34.8584H35.4297L40.2713 42.8812L45.1125 34.8584H47.0495V47.9998H44.8358V39.8387C44.8358 39.7004 44.8358 39.1471 44.9741 38.455C44.6975 39.1467 44.4208 39.5621 44.2833 39.8387L40.4096 46.4778H39.8563L35.9835 39.8387C35.7068 39.4237 35.5685 39.0087 35.4301 38.455V47.9998H33.4935L33.4931 34.8584ZM49.2628 34.8584H59.9135V37.0717H51.7524V40.115H56.4552V42.3287H51.7524V45.5103H60.0518V47.9998H49.2628V34.8584ZM69.8733 40.2533H64.7555V37.0717H70.7033V38.8704H73.0545V37.9017C73.0545 35.6888 72.2249 34.9967 69.5962 34.9967H65.7238C63.0955 34.9967 62.2655 35.6884 62.2655 38.1783V39.2854C62.2655 41.7749 63.0955 42.467 65.7238 42.467H70.7033V45.787H64.34V43.8499H61.7118V44.8186C61.7118 47.3082 62.5417 48.0003 65.17 48.0003H69.8729C72.5012 48.0003 73.3311 47.3086 73.3311 44.8186V43.4349C73.3316 40.945 72.5012 40.2533 69.8733 40.2533Z" fill="white"/>
</svg>
