<svg width="57" height="48" viewBox="0 0 57 48" fill="none" xmlns="http://www.w3.org/2000/svg">
<g clip-path="url(#clip0_1312_3448)">
<g clip-path="url(#clip1_1312_3448)">
<path fill-rule="evenodd" clip-rule="evenodd" d="M58.8482 36.5728C57.649 38.0857 54.7112 39.1649 54.7112 39.1649L32.8561 47.0151V41.2258L48.9399 35.495C50.7651 34.8411 51.0454 33.9166 49.5618 33.4314C48.081 32.9448 45.3997 33.0842 43.5731 33.7409L32.8561 37.5154V31.5072L33.4738 31.298C33.4738 31.298 36.5707 30.2021 40.9252 29.7196C45.2798 29.24 50.6118 29.7852 54.7976 31.3719C59.5147 32.8625 60.0459 35.06 58.8482 36.5728ZM34.9365 26.7148V11.9096C34.9365 10.1709 34.6158 8.57017 32.9844 8.11701C31.7351 7.71683 30.9598 8.87693 30.9598 10.6143V47.69L20.961 44.5164V0.310059C25.2123 1.09926 31.406 2.9649 34.7357 4.08735C43.2036 6.99456 46.0746 10.6129 46.0746 18.7656C46.0746 26.712 41.1693 29.7238 34.9365 26.7148ZM2.61415 40.6206C-2.22842 39.257 -3.03435 36.4153 -0.827097 34.7783C1.21283 33.2669 4.68197 32.1291 4.68197 32.1291L19.0186 27.0313V32.843L8.70187 36.5352C6.87946 37.1892 6.5992 38.115 8.07999 38.6002C9.56218 39.0855 12.2449 38.9474 14.0701 38.2921L19.0186 36.4962V41.6957C18.7049 41.7515 18.3549 41.8072 18.0314 41.8616C13.0815 42.6703 7.80949 42.3329 2.61415 40.6206ZM55.6635 42.9227C56.2896 42.9227 56.8766 43.1653 57.3186 43.6129C57.7606 44.0535 58.0046 44.6419 58.0046 45.2666C58.0046 45.8941 57.7606 46.4797 57.3186 46.9203C56.8766 47.3651 56.2896 47.6077 55.6635 47.6077C55.0374 47.6077 54.4518 47.3651 54.0084 46.9203C53.5664 46.4797 53.3238 45.8941 53.3238 45.2666C53.3238 43.9754 54.3723 42.9227 55.6635 42.9227ZM53.717 45.2666C53.717 45.7867 53.9192 46.2761 54.2873 46.6414C54.654 47.0123 55.1448 47.2131 55.6635 47.2131C56.7385 47.2131 57.61 46.3403 57.61 45.2666C57.61 44.7451 57.4092 44.2557 57.0397 43.889C56.673 43.5181 56.1822 43.3187 55.6635 43.3187C55.1448 43.3187 54.654 43.5181 54.2873 43.889C53.9192 44.2557 53.717 44.7451 53.717 45.2666ZM56.3704 44.0047C56.627 44.1177 56.7567 44.3352 56.7567 44.6447C56.7567 44.8037 56.7232 44.9375 56.6549 45.0421C56.6061 45.1174 56.5363 45.1788 56.4583 45.2318C56.5196 45.268 56.574 45.3112 56.6144 45.3614C56.6702 45.4339 56.7023 45.5497 56.7065 45.7072L56.719 46.0405C56.7232 46.1297 56.7288 46.198 56.7427 46.2399C56.7567 46.3012 56.7832 46.3403 56.8166 46.3528L56.8515 46.3695V46.4072V46.4644V46.5215H56.7943H56.3802H56.3467L56.33 46.4923C56.316 46.4644 56.3063 46.4323 56.2965 46.3905C56.2896 46.3528 56.2826 46.2873 56.2784 46.1869L56.2575 45.7728C56.2519 45.6292 56.2031 45.5399 56.1111 45.4925C56.0539 45.466 55.9591 45.4535 55.8308 45.4535H55.1211V46.4644V46.5215H55.0625H54.7251H54.6679V46.4644V43.9727V43.9155H54.7251H55.8782C56.0762 43.9155 56.2421 43.9448 56.3704 44.0047ZM55.1211 45.0547H55.8434C55.9884 45.0547 56.1041 45.0282 56.1864 44.9738C56.2617 44.9194 56.2979 44.8204 56.2979 44.6768C56.2979 44.5206 56.2463 44.4188 56.1376 44.3645C56.0776 44.3352 55.9939 44.3185 55.888 44.3185H55.1211V45.0547Z" fill="white"/>
</g>
</g>
<defs>
<clipPath id="clip0_1312_3448">
<rect width="57" height="48" fill="white"/>
</clipPath>
<clipPath id="clip1_1312_3448">
<rect width="62.0078" height="48" fill="white" transform="translate(-2.30371)"/>
</clipPath>
</defs>
</svg>
