<svg width="192" height="48" viewBox="0 0 192 48" fill="none" xmlns="http://www.w3.org/2000/svg">
<g clip-path="url(#clip0_1312_3451)">
<path d="M66.9905 13.1744H74.4213V41.5168H66.9905V13.1744ZM175.706 29.4333V41.4086L168.23 41.3818V12.2998L181.694 23.8878V13.175H189.106V42.5629L175.706 29.4333ZM29.6223 27.2692C29.6223 19.2252 36.151 12.6968 44.1944 12.6968C47.8194 12.6968 51.1379 14.0312 53.6901 16.2224L48.8747 21.6869C47.6124 20.6227 45.9798 19.9825 44.1944 19.9825C40.1726 19.9825 36.9084 23.2468 36.9084 27.2686C36.9084 31.2904 40.1726 34.5547 44.1944 34.5547C46.0068 34.5547 47.6664 33.8875 48.9468 32.7872L53.7533 38.2609C51.2009 40.488 47.8559 41.8319 44.1944 41.8319C36.1505 41.8324 29.6223 35.3126 29.6223 27.2692Z" fill="white"/>
<path d="M88.5697 48.0001L74.5111 10.6492H62.7611V41.6248H55.0689V10.6492H38.0439L41.9935 3.20966H80.0027L88.5694 25.5908L97.1453 3.20947H133.946L138.004 10.649H102.637L88.5697 48.0001Z" fill="white"/>
<path d="M112.322 41.4087V35.1503H117.427C118.256 35.1503 119.834 35.0873 120.231 33.7708C121.051 31.0296 112.647 26.5838 112.647 19.7668C112.647 14.6087 116.38 13.0669 118.914 13.0669H126.651V19.2167H121.872C121.872 19.2167 120.501 19.2167 120.122 19.7668C118.048 22.7337 127.805 27.0709 127.805 35.0423C127.805 39.2084 124.234 41.4087 120.672 41.4087H112.322ZM102.746 13.0663H110.185V41.4087H102.746V13.0663ZM129.014 13.0663H136.453V41.4087H129.014V13.0663ZM23.9772 41.5167L22.0021 36.2417H12.7774L10.8028 41.5167H2.89453L17.3948 0L31.8952 41.5167H23.9772ZM15.0316 28.6664H19.4234L17.2232 21.4162L15.0316 28.6664ZM137.806 27.2599C137.806 19.2072 144.344 12.6697 152.405 12.6697C160.458 12.6697 166.995 19.2072 166.995 27.2599C166.995 35.3218 160.457 41.8593 152.405 41.8593C144.344 41.8593 137.806 35.3214 137.806 27.2599ZM145.155 27.2599C145.155 31.2635 148.402 34.5101 152.405 34.5101C156.4 34.5101 159.646 31.2637 159.646 27.2599C159.646 23.2653 156.4 20.0189 152.405 20.0189C148.402 20.0189 145.155 23.2647 145.155 27.2599Z" fill="white"/>
</g>
<defs>
<clipPath id="clip0_1312_3451">
<rect width="186.335" height="48" fill="white" transform="translate(2.83252)"/>
</clipPath>
</defs>
</svg>
