<svg width="53" height="48" viewBox="0 0 53 48" fill="none" xmlns="http://www.w3.org/2000/svg">
<path d="M0 38.1803V44.0374C0 46.4156 1.62117 47.9315 3.98227 47.9315C6.46585 47.9315 7.98601 46.3329 7.98601 43.877V38.1803H5.88391V43.77C5.88391 45.1091 5.20952 45.9396 4.00468 45.9396C2.68423 45.9396 2.10214 44.9846 2.10214 43.877V38.1803H0ZM9.00803 38.2612V47.8359H12.3562C14.2105 47.8359 15.7862 46.8901 15.7862 45.0143C15.7862 43.0563 14.0728 42.6223 14.0728 42.6223C14.0728 42.6223 15.3415 42.2699 15.3415 40.5947C15.3415 38.9207 13.738 38.2612 12.3562 38.2612H9.00803ZM11.1259 40.0798H12.1422C12.8476 40.0798 13.2989 40.4514 13.2989 41.0978C13.2989 41.6761 12.916 42.1125 12.1957 42.1125H11.1259V40.0798H11.1259ZM11.1259 43.6102H12.2492C13.3055 43.6102 13.6717 44.1528 13.6717 44.8003C13.6717 45.5538 13.1979 45.9955 12.3562 45.9955H11.1259V43.6103L11.1259 43.6102ZM16.5819 38.2605H18.6947V47.8352H16.5819V38.2605ZM39.636 47.8352H37.5232V38.2605H44.1559V40.2397H39.636V42.4328H43.7547V44.0374H39.636V47.8352ZM44.9316 38.2605V40.2397H47.6595V47.8352H49.7991V40.2397H52.4736V38.2605H44.9316ZM21.1068 44.6516L19.4283 45.8788C19.4283 45.8788 20.0083 48 22.9159 48C24.8522 48 26.277 46.87 26.277 44.8835C26.277 41.682 21.8005 42.3612 21.8005 40.7148C21.8005 40.2815 22.1858 39.8988 22.897 39.8988C24.0379 39.8988 24.4716 41.018 24.4716 41.018L26.1505 39.8397C26.1505 39.8397 25.4948 38.0917 22.9813 38.0917C20.9157 38.0917 19.8184 39.4169 19.8184 40.7844C19.8184 44.0469 24.1646 43.3388 24.1646 45.051C24.1646 45.6288 23.7092 46.0533 23.0001 46.0485C21.5951 46.0485 21.1068 44.6516 21.1068 44.6516ZM31.7329 38.0873C29.2447 38.0873 28.1357 39.4379 28.1357 39.4379L28.4566 39.7588C28.4566 39.7588 26.8469 40.9022 26.8469 43.3577C26.8469 46.1831 29.026 47.9979 31.7446 47.9979C34.9034 47.9979 36.6957 45.6671 36.6957 43.0468C36.6957 40.2525 34.6495 38.0873 31.7329 38.0873ZM31.778 40.0748C33.465 40.0748 34.5595 41.3642 34.5595 43.0384C34.5595 44.6953 33.4781 46.0205 31.778 46.0205C30.0984 46.0205 28.9949 44.8476 28.9949 43.2908C28.9949 41.874 29.9543 41.2565 29.9543 41.2565L29.6066 40.9088C29.6066 40.9088 30.3465 40.0748 31.778 40.0748ZM25.2669 0C14.4154 0 9.73154 9.65892 9.73154 9.65892L11.1103 10.6459C11.1103 10.6459 9.37525 13.9454 9.42326 18.1775C9.42326 26.8167 16.3003 34.955 26.424 34.955C35.6209 34.955 43.2181 27.4692 43.2181 18.1987C43.2181 6.10787 33.842 0 25.2669 0H25.2669ZM25.361 2.94734C33.8392 2.94734 40.4181 9.7794 40.4181 17.722C40.4181 26.1416 34.0856 31.997 26.7064 31.997C21.2755 31.997 16.3763 27.8612 16.3763 22.1908C16.3763 18.9157 18.117 16.6323 20.0677 15.4154L20.3531 15.7252C19.8193 16.1429 18.2972 18.588 18.2972 20.9912C18.2972 25.4526 21.7958 28.5425 26.2038 28.5425C31.8188 28.5425 35.5635 23.7534 35.5635 18.1927C35.5635 11.7229 29.8527 6.23024 22.9801 6.23024C19.1788 6.23024 15.9525 7.865 14.0986 9.30818L13.8101 9.04702C16.2355 5.30739 20.4356 2.94734 25.361 2.94734ZM22.8313 9.1366C27.217 9.1366 31.4988 12.038 32.5676 16.1564L32.1789 16.3037C30.2599 13.7695 27.1154 11.6694 23.4022 11.6694C16.5695 11.6694 12.9811 17.8782 13.5079 23.0639L13.1055 23.2112C13.1055 23.2112 12.3509 21.546 12.3509 19.5714C12.3509 13.8534 17.0466 9.1366 22.8313 9.1366ZM25.73 16.3128C27.8064 16.3128 29.467 17.9958 29.467 19.9936C29.467 21.6468 28.4055 22.6266 28.4055 22.6266L29.6628 23.5058C29.6628 23.5058 28.4161 25.4631 25.8712 25.4631C23.4369 25.4631 21.284 23.4982 21.284 20.856C21.284 18.1335 23.6258 16.3128 25.73 16.3128Z" fill="white"/>
</svg>
